<svg xmlns="http://www.w3.org/2000/svg" width="349.982911" height="285.728236" viewBox="0 0 441.214 359.904"><path d="M294.638 134.23h28.102v-9.804h-35.148a87.465 87.465 0 0 1 7.046 9.804m-158.644 66.13H92.946v9.806h46.024a86.522 86.522 0 0 1-2.976-9.806M188.37 99.114h-44.364v9.806h26.374a86.897 86.897 0 0 1 17.99-9.806m-41.8 126.558h-28.094v9.806h35.142a87.76 87.76 0 0 1-7.048-9.806m-53.624-66.13h43.048a86.489 86.489 0 0 1 2.976-9.804H92.946zm212.268 0h43.062v-9.804H302.24a86.075 86.075 0 0 1 2.974 9.804m68.6 15.508h-66.306c.092 1.622.146 3.256.146 4.902s-.054 3.278-.146 4.902h66.306zm-255.338-40.82h28.094a87.737 87.737 0 0 1 7.048-9.804h-35.142zm51.904 116.754h-26.374v9.804h44.364a86.983 86.983 0 0 1-17.99-9.804m177.896-50.624h-43.062a86.108 86.108 0 0 1-2.974 9.806h46.036zm-51.072 50.624H270.83a86.983 86.983 0 0 1-17.99 9.804h44.364zm25.536-25.312h-28.102a87.489 87.489 0 0 1-7.046 9.806h35.148zM67.416 184.854h66.286c-.092-1.624-.148-3.256-.148-4.902s.056-3.28.148-4.902H67.416zM223.668 336.29v-69.352a86.954 86.954 0 0 1-6.128 0v69.352H79.866l-9.804 9.804h301.086l-9.806-9.804zM15.944 235.628v6.126h35.084V117.976H15.944v6.128H44.9v111.524zM425.27 124.276v-6.128h-35.084v123.78h35.084V235.8h-28.956V124.276zM274.082 186.83l13.998-15.784-8.62-26.266-23.05-12.04-13.81 13.08 8.834 30.36zm-2.294 5.692-22.586-10.618-25.534 18.314v27.422l23.7 11.15 8.398-6.022 16.022-11.492zm-28.324 51.204-22.86-10.756-22.858 10.756 4.72 8.784a74.719 74.719 0 0 0 36.278 0zm-49.624-4.936 23.7-11.15v-27.422l-25.534-18.314-22.586 10.618v28.754l21.568 15.468zm-26.712-51.96 22.648-10.65 8.834-30.36-13.81-13.08-23.052 12.04-8.62 26.266zm-3.836 4.91-13.944-15.722-3.512 2.926c-.004.338-.026.67-.026 1.008 0 14.634 4.242 28.29 11.536 39.832h5.946zm43.792-77.912-17.228 15.26 13.438 12.73h34.62l13.44-12.73-17.228-15.26zm-10.25-4.774c-13.714 4.612-25.66 13.088-34.54 24.14v4.39l21.278-11.114 17.138-15.178zm43.67 2.238 17.138 15.178 21.278 11.114v-4.39c-8.88-11.052-20.826-19.528-34.54-24.14zm51.358 64.726-13.946 15.722v28.044h5.946c7.294-11.542 11.536-25.198 11.536-39.832 0-.338-.022-.672-.026-1.008zm-71.258 84.856c-44.62 0-80.922-36.302-80.922-80.922s36.302-80.922 80.922-80.922c44.622 0 80.922 36.302 80.922 80.922s-36.3 80.922-80.922 80.922M270.83 108.92h26.374v-9.806H252.84a86.897 86.897 0 0 1 17.99 9.806m160.578-41.774h-13.366a18.982 18.982 0 0 0 13.366 13.366zm0 212.246a18.979 18.979 0 0 0-13.366 13.366h13.366zm9.806 23.17H350.15l50.408 50.408-6.932 6.934-89.94-89.938 6.934-6.934 29.724 29.726h71.402c1.972-9.888 9.776-17.69 19.662-19.662V86.806c-9.886-1.97-17.69-9.774-19.662-19.66h-71.402L310.62 96.87l-6.934-6.932L393.626 0l6.932 6.934-50.408 50.408h91.064zm-418.042-9.804a18.978 18.978 0 0 0-13.368-13.366v13.366zM9.804 80.528a18.914 18.914 0 0 0 13.384-13.382H9.804zm127.72 189.438-89.938 89.938-6.932-6.934 50.408-50.408H0V57.342h91.064L40.656 6.934 47.588 0l89.938 89.938-6.932 6.932-29.726-29.724H29.47c-1.966 9.922-9.776 17.722-19.666 19.67v186.28c9.888 1.97 17.692 9.774 19.662 19.662h71.4l29.726-29.726zM79.866 23.614l-9.804-9.804h301.086l-9.806 9.804H223.668v69.352a86.954 86.954 0 0 0-6.128 0V23.614z"/></svg>